<mxfile host="Electron" agent="Mozilla/5.0 (Windows NT 10.0; Win64; x64) AppleWebKit/537.36 (KHTML, like Gecko) draw.io/26.2.2 Chrome/134.0.6998.178 Electron/35.1.2 Safari/537.36" version="26.2.2">
  <diagram name="Page-1" id="_9vZ8oShTqBhKoVnPYbj">
    <mxGraphModel dx="847" dy="1600" grid="1" gridSize="10" guides="1" tooltips="1" connect="1" arrows="1" fold="1" page="1" pageScale="1" pageWidth="827" pageHeight="1169" math="0" shadow="0">
      <root>
        <mxCell id="0" />
        <mxCell id="1" parent="0" />
        <mxCell id="qUDko9j9zWVaxRLH53N1-1" value="" style="swimlane;startSize=0;" vertex="1" parent="1">
          <mxGeometry x="1160" y="620" width="240" height="250" as="geometry" />
        </mxCell>
        <mxCell id="qUDko9j9zWVaxRLH53N1-2" value="&lt;font style=&quot;font-size: 14px;&quot;&gt;&lt;b&gt;Business Hub&lt;/b&gt;&lt;/font&gt;" style="text;html=1;align=center;verticalAlign=middle;resizable=0;points=[];autosize=1;strokeColor=none;fillColor=none;" vertex="1" parent="qUDko9j9zWVaxRLH53N1-1">
          <mxGeometry x="60" y="110" width="120" height="30" as="geometry" />
        </mxCell>
        <mxCell id="qUDko9j9zWVaxRLH53N1-3" value="admin" style="rounded=0;whiteSpace=wrap;html=1;" vertex="1" parent="1">
          <mxGeometry x="590" y="710" width="150" height="70" as="geometry" />
        </mxCell>
        <mxCell id="qUDko9j9zWVaxRLH53N1-4" value="" style="endArrow=classic;html=1;rounded=0;exitX=1;exitY=0.25;exitDx=0;exitDy=0;" edge="1" parent="1">
          <mxGeometry width="50" height="50" relative="1" as="geometry">
            <mxPoint x="740" y="730" as="sourcePoint" />
            <mxPoint x="1160" y="730" as="targetPoint" />
          </mxGeometry>
        </mxCell>
        <mxCell id="qUDko9j9zWVaxRLH53N1-5" value="log in credintals" style="edgeLabel;html=1;align=center;verticalAlign=middle;resizable=0;points=[];" connectable="0" vertex="1" parent="qUDko9j9zWVaxRLH53N1-4">
          <mxGeometry x="-0.0391" y="-2" relative="1" as="geometry">
            <mxPoint as="offset" />
          </mxGeometry>
        </mxCell>
        <mxCell id="qUDko9j9zWVaxRLH53N1-6" value="" style="endArrow=classic;html=1;rounded=0;exitX=-0.008;exitY=0.544;exitDx=0;exitDy=0;exitPerimeter=0;entryX=1.002;entryY=0.635;entryDx=0;entryDy=0;entryPerimeter=0;" edge="1" parent="1" source="qUDko9j9zWVaxRLH53N1-1">
          <mxGeometry width="50" height="50" relative="1" as="geometry">
            <mxPoint x="979" y="753" as="sourcePoint" />
            <mxPoint x="740" y="753" as="targetPoint" />
          </mxGeometry>
        </mxCell>
        <mxCell id="qUDko9j9zWVaxRLH53N1-7" value="successfully logged in" style="edgeLabel;html=1;align=center;verticalAlign=middle;resizable=0;points=[];" connectable="0" vertex="1" parent="qUDko9j9zWVaxRLH53N1-6">
          <mxGeometry x="-0.0249" relative="1" as="geometry">
            <mxPoint as="offset" />
          </mxGeometry>
        </mxCell>
        <mxCell id="qUDko9j9zWVaxRLH53N1-8" value="" style="endArrow=classic;html=1;rounded=0;exitX=0;exitY=0.92;exitDx=0;exitDy=0;exitPerimeter=0;entryX=0.86;entryY=1.029;entryDx=0;entryDy=0;entryPerimeter=0;" edge="1" parent="1" source="qUDko9j9zWVaxRLH53N1-1" target="qUDko9j9zWVaxRLH53N1-3">
          <mxGeometry width="50" height="50" relative="1" as="geometry">
            <mxPoint x="790" y="860" as="sourcePoint" />
            <mxPoint x="740" y="850" as="targetPoint" />
            <Array as="points">
              <mxPoint x="720" y="850" />
            </Array>
          </mxGeometry>
        </mxCell>
        <mxCell id="qUDko9j9zWVaxRLH53N1-9" value="User List" style="edgeLabel;html=1;align=center;verticalAlign=middle;resizable=0;points=[];" vertex="1" connectable="0" parent="qUDko9j9zWVaxRLH53N1-8">
          <mxGeometry x="-0.122" y="1" relative="1" as="geometry">
            <mxPoint as="offset" />
          </mxGeometry>
        </mxCell>
        <mxCell id="qUDko9j9zWVaxRLH53N1-10" value="" style="endArrow=classic;html=1;rounded=0;entryX=0;entryY=1;entryDx=0;entryDy=0;" edge="1" parent="1" target="qUDko9j9zWVaxRLH53N1-1">
          <mxGeometry width="50" height="50" relative="1" as="geometry">
            <mxPoint x="700" y="780" as="sourcePoint" />
            <mxPoint x="1190" y="910" as="targetPoint" />
            <Array as="points">
              <mxPoint x="700" y="890" />
              <mxPoint x="1160" y="890" />
            </Array>
          </mxGeometry>
        </mxCell>
        <mxCell id="qUDko9j9zWVaxRLH53N1-11" value="User Management" style="edgeLabel;html=1;align=center;verticalAlign=middle;resizable=0;points=[];" vertex="1" connectable="0" parent="qUDko9j9zWVaxRLH53N1-10">
          <mxGeometry x="0.078" y="-2" relative="1" as="geometry">
            <mxPoint as="offset" />
          </mxGeometry>
        </mxCell>
        <mxCell id="qUDko9j9zWVaxRLH53N1-12" value="" style="endArrow=classic;html=1;rounded=0;exitX=0.004;exitY=0.184;exitDx=0;exitDy=0;exitPerimeter=0;entryX=0.75;entryY=0;entryDx=0;entryDy=0;" edge="1" parent="1" source="qUDko9j9zWVaxRLH53N1-1" target="qUDko9j9zWVaxRLH53N1-3">
          <mxGeometry width="50" height="50" relative="1" as="geometry">
            <mxPoint x="1020" y="700" as="sourcePoint" />
            <mxPoint x="700" y="700" as="targetPoint" />
            <Array as="points">
              <mxPoint x="703" y="666" />
            </Array>
          </mxGeometry>
        </mxCell>
        <mxCell id="qUDko9j9zWVaxRLH53N1-13" value="Academic Info" style="edgeLabel;html=1;align=center;verticalAlign=middle;resizable=0;points=[];" vertex="1" connectable="0" parent="qUDko9j9zWVaxRLH53N1-12">
          <mxGeometry x="-0.0559" y="1" relative="1" as="geometry">
            <mxPoint as="offset" />
          </mxGeometry>
        </mxCell>
        <mxCell id="qUDko9j9zWVaxRLH53N1-14" value="" style="endArrow=classic;html=1;rounded=0;entryX=0;entryY=0.084;entryDx=0;entryDy=0;entryPerimeter=0;" edge="1" parent="1" target="qUDko9j9zWVaxRLH53N1-1">
          <mxGeometry width="50" height="50" relative="1" as="geometry">
            <mxPoint x="680" y="710" as="sourcePoint" />
            <mxPoint x="730" y="620" as="targetPoint" />
            <Array as="points">
              <mxPoint x="680" y="640" />
            </Array>
          </mxGeometry>
        </mxCell>
        <mxCell id="qUDko9j9zWVaxRLH53N1-15" value="Academic Staff Management" style="edgeLabel;html=1;align=center;verticalAlign=middle;resizable=0;points=[];" vertex="1" connectable="0" parent="qUDko9j9zWVaxRLH53N1-14">
          <mxGeometry x="0.0655" y="-1" relative="1" as="geometry">
            <mxPoint as="offset" />
          </mxGeometry>
        </mxCell>
        <mxCell id="qUDko9j9zWVaxRLH53N1-16" value="" style="endArrow=classic;html=1;rounded=0;entryX=0.06;entryY=-0.043;entryDx=0;entryDy=0;entryPerimeter=0;" edge="1" parent="1" target="qUDko9j9zWVaxRLH53N1-3">
          <mxGeometry width="50" height="50" relative="1" as="geometry">
            <mxPoint x="1210" y="620" as="sourcePoint" />
            <mxPoint x="570" y="560" as="targetPoint" />
            <Array as="points">
              <mxPoint x="1210" y="560" />
              <mxPoint x="599" y="560" />
            </Array>
          </mxGeometry>
        </mxCell>
        <mxCell id="qUDko9j9zWVaxRLH53N1-17" value="Department Info" style="edgeLabel;html=1;align=center;verticalAlign=middle;resizable=0;points=[];" vertex="1" connectable="0" parent="qUDko9j9zWVaxRLH53N1-16">
          <mxGeometry x="-0.1516" relative="1" as="geometry">
            <mxPoint as="offset" />
          </mxGeometry>
        </mxCell>
        <mxCell id="qUDko9j9zWVaxRLH53N1-18" value="" style="endArrow=classic;html=1;rounded=0;entryX=0.129;entryY=-0.012;entryDx=0;entryDy=0;entryPerimeter=0;" edge="1" parent="1" target="qUDko9j9zWVaxRLH53N1-1">
          <mxGeometry width="50" height="50" relative="1" as="geometry">
            <mxPoint x="630" y="710" as="sourcePoint" />
            <mxPoint x="1200" y="600" as="targetPoint" />
            <Array as="points">
              <mxPoint x="630" y="580" />
              <mxPoint x="1190" y="580" />
            </Array>
          </mxGeometry>
        </mxCell>
        <mxCell id="qUDko9j9zWVaxRLH53N1-19" value="Manage Department" style="edgeLabel;html=1;align=center;verticalAlign=middle;resizable=0;points=[];" vertex="1" connectable="0" parent="qUDko9j9zWVaxRLH53N1-18">
          <mxGeometry x="0.1197" y="-2" relative="1" as="geometry">
            <mxPoint as="offset" />
          </mxGeometry>
        </mxCell>
        <mxCell id="qUDko9j9zWVaxRLH53N1-20" value="" style="endArrow=classic;html=1;rounded=0;exitX=0.167;exitY=0.984;exitDx=0;exitDy=0;exitPerimeter=0;entryX=0.327;entryY=1.043;entryDx=0;entryDy=0;entryPerimeter=0;" edge="1" parent="1" source="qUDko9j9zWVaxRLH53N1-1" target="qUDko9j9zWVaxRLH53N1-3">
          <mxGeometry width="50" height="50" relative="1" as="geometry">
            <mxPoint x="1220" y="920" as="sourcePoint" />
            <mxPoint x="610" y="820" as="targetPoint" />
            <Array as="points">
              <mxPoint x="1200" y="920" />
              <mxPoint x="639" y="920" />
            </Array>
          </mxGeometry>
        </mxCell>
        <mxCell id="qUDko9j9zWVaxRLH53N1-21" value="Books Info" style="edgeLabel;html=1;align=center;verticalAlign=middle;resizable=0;points=[];" vertex="1" connectable="0" parent="qUDko9j9zWVaxRLH53N1-20">
          <mxGeometry x="-0.0904" y="2" relative="1" as="geometry">
            <mxPoint as="offset" />
          </mxGeometry>
        </mxCell>
        <mxCell id="qUDko9j9zWVaxRLH53N1-22" value="" style="endArrow=classic;html=1;rounded=0;exitX=0.067;exitY=1;exitDx=0;exitDy=0;exitPerimeter=0;entryX=0.292;entryY=1.04;entryDx=0;entryDy=0;entryPerimeter=0;" edge="1" parent="1" source="qUDko9j9zWVaxRLH53N1-3" target="qUDko9j9zWVaxRLH53N1-1">
          <mxGeometry width="50" height="50" relative="1" as="geometry">
            <mxPoint x="570" y="890" as="sourcePoint" />
            <mxPoint x="1240" y="960" as="targetPoint" />
            <Array as="points">
              <mxPoint x="600" y="960" />
              <mxPoint x="1230" y="960" />
            </Array>
          </mxGeometry>
        </mxCell>
        <mxCell id="qUDko9j9zWVaxRLH53N1-23" value="Manage Books" style="edgeLabel;html=1;align=center;verticalAlign=middle;resizable=0;points=[];" vertex="1" connectable="0" parent="qUDko9j9zWVaxRLH53N1-22">
          <mxGeometry x="0.0697" y="-3" relative="1" as="geometry">
            <mxPoint as="offset" />
          </mxGeometry>
        </mxCell>
        <mxCell id="qUDko9j9zWVaxRLH53N1-24" value="student" style="rounded=0;whiteSpace=wrap;html=1;" vertex="1" parent="1">
          <mxGeometry x="1820" y="680" width="170" height="100" as="geometry" />
        </mxCell>
        <mxCell id="qUDko9j9zWVaxRLH53N1-25" value="" style="endArrow=classic;html=1;rounded=0;exitX=0.129;exitY=1.04;exitDx=0;exitDy=0;exitPerimeter=0;entryX=1.013;entryY=0.876;entryDx=0;entryDy=0;entryPerimeter=0;" edge="1" parent="1" source="qUDko9j9zWVaxRLH53N1-24" target="qUDko9j9zWVaxRLH53N1-1">
          <mxGeometry width="50" height="50" relative="1" as="geometry">
            <mxPoint x="1560" y="880" as="sourcePoint" />
            <mxPoint x="1830" y="850" as="targetPoint" />
            <Array as="points">
              <mxPoint x="1840" y="840" />
            </Array>
          </mxGeometry>
        </mxCell>
        <mxCell id="qUDko9j9zWVaxRLH53N1-26" value="Halls Search Request" style="edgeLabel;html=1;align=center;verticalAlign=middle;resizable=0;points=[];" vertex="1" connectable="0" parent="qUDko9j9zWVaxRLH53N1-25">
          <mxGeometry x="0.0267" relative="1" as="geometry">
            <mxPoint as="offset" />
          </mxGeometry>
        </mxCell>
        <mxCell id="qUDko9j9zWVaxRLH53N1-27" value="" style="endArrow=classic;html=1;rounded=0;entryX=0;entryY=0.4;entryDx=0;entryDy=0;entryPerimeter=0;" edge="1" parent="1">
          <mxGeometry width="50" height="50" relative="1" as="geometry">
            <mxPoint x="1400" y="690" as="sourcePoint" />
            <mxPoint x="1820" y="690" as="targetPoint" />
          </mxGeometry>
        </mxCell>
        <mxCell id="qUDko9j9zWVaxRLH53N1-28" value="Successfully logged in" style="edgeLabel;html=1;align=center;verticalAlign=middle;resizable=0;points=[];" vertex="1" connectable="0" parent="qUDko9j9zWVaxRLH53N1-27">
          <mxGeometry x="0.0952" relative="1" as="geometry">
            <mxPoint as="offset" />
          </mxGeometry>
        </mxCell>
        <mxCell id="qUDko9j9zWVaxRLH53N1-29" value="" style="endArrow=classic;html=1;rounded=0;exitX=0;exitY=0.4;exitDx=0;exitDy=0;exitPerimeter=0;" edge="1" parent="1" source="qUDko9j9zWVaxRLH53N1-24">
          <mxGeometry width="50" height="50" relative="1" as="geometry">
            <mxPoint x="1490" y="730" as="sourcePoint" />
            <mxPoint x="1404" y="719" as="targetPoint" />
          </mxGeometry>
        </mxCell>
        <mxCell id="qUDko9j9zWVaxRLH53N1-30" value="Log in Credintals" style="edgeLabel;html=1;align=center;verticalAlign=middle;resizable=0;points=[];" vertex="1" connectable="0" parent="qUDko9j9zWVaxRLH53N1-29">
          <mxGeometry x="-0.0287" y="-1" relative="1" as="geometry">
            <mxPoint as="offset" />
          </mxGeometry>
        </mxCell>
        <mxCell id="qUDko9j9zWVaxRLH53N1-31" value="" style="endArrow=classic;html=1;rounded=0;exitX=1;exitY=0.5;exitDx=0;exitDy=0;entryX=-0.012;entryY=0.67;entryDx=0;entryDy=0;entryPerimeter=0;" edge="1" parent="1" source="qUDko9j9zWVaxRLH53N1-1" target="qUDko9j9zWVaxRLH53N1-24">
          <mxGeometry width="50" height="50" relative="1" as="geometry">
            <mxPoint x="1570" y="765" as="sourcePoint" />
            <mxPoint x="1510" y="725" as="targetPoint" />
          </mxGeometry>
        </mxCell>
        <mxCell id="qUDko9j9zWVaxRLH53N1-32" value="Successfully signed up" style="edgeLabel;html=1;align=center;verticalAlign=middle;resizable=0;points=[];" vertex="1" connectable="0" parent="qUDko9j9zWVaxRLH53N1-31">
          <mxGeometry x="0.0719" relative="1" as="geometry">
            <mxPoint as="offset" />
          </mxGeometry>
        </mxCell>
        <mxCell id="qUDko9j9zWVaxRLH53N1-33" value="" style="endArrow=classic;html=1;rounded=0;exitX=-0.012;exitY=0.9;exitDx=0;exitDy=0;exitPerimeter=0;entryX=1.013;entryY=0.596;entryDx=0;entryDy=0;entryPerimeter=0;" edge="1" parent="1" source="qUDko9j9zWVaxRLH53N1-24" target="qUDko9j9zWVaxRLH53N1-1">
          <mxGeometry width="50" height="50" relative="1" as="geometry">
            <mxPoint x="1710" y="840" as="sourcePoint" />
            <mxPoint x="1760" y="790" as="targetPoint" />
          </mxGeometry>
        </mxCell>
        <mxCell id="qUDko9j9zWVaxRLH53N1-34" value="Sign up Credintals" style="edgeLabel;html=1;align=center;verticalAlign=middle;resizable=0;points=[];" vertex="1" connectable="0" parent="qUDko9j9zWVaxRLH53N1-33">
          <mxGeometry x="-0.0882" y="1" relative="1" as="geometry">
            <mxPoint as="offset" />
          </mxGeometry>
        </mxCell>
        <mxCell id="qUDko9j9zWVaxRLH53N1-35" value="" style="endArrow=classic;html=1;rounded=0;entryX=0.059;entryY=1.03;entryDx=0;entryDy=0;entryPerimeter=0;" edge="1" parent="1" target="qUDko9j9zWVaxRLH53N1-24">
          <mxGeometry width="50" height="50" relative="1" as="geometry">
            <mxPoint x="1400" y="820" as="sourcePoint" />
            <mxPoint x="1830" y="820" as="targetPoint" />
            <Array as="points">
              <mxPoint x="1830" y="820" />
            </Array>
          </mxGeometry>
        </mxCell>
        <mxCell id="qUDko9j9zWVaxRLH53N1-36" value="Halls Location Information" style="edgeLabel;html=1;align=center;verticalAlign=middle;resizable=0;points=[];" vertex="1" connectable="0" parent="qUDko9j9zWVaxRLH53N1-35">
          <mxGeometry x="-0.0236" relative="1" as="geometry">
            <mxPoint as="offset" />
          </mxGeometry>
        </mxCell>
        <mxCell id="qUDko9j9zWVaxRLH53N1-37" value="" style="endArrow=classic;html=1;rounded=0;exitX=0.353;exitY=1;exitDx=0;exitDy=0;exitPerimeter=0;entryX=0.917;entryY=1;entryDx=0;entryDy=0;entryPerimeter=0;" edge="1" parent="1" source="qUDko9j9zWVaxRLH53N1-24" target="qUDko9j9zWVaxRLH53N1-1">
          <mxGeometry width="50" height="50" relative="1" as="geometry">
            <mxPoint x="1900" y="960" as="sourcePoint" />
            <mxPoint x="1340" y="970" as="targetPoint" />
            <Array as="points">
              <mxPoint x="1880" y="960" />
              <mxPoint x="1380" y="960" />
            </Array>
          </mxGeometry>
        </mxCell>
        <mxCell id="qUDko9j9zWVaxRLH53N1-38" value="Staff Search Request" style="edgeLabel;html=1;align=center;verticalAlign=middle;resizable=0;points=[];" vertex="1" connectable="0" parent="qUDko9j9zWVaxRLH53N1-37">
          <mxGeometry x="0.0701" y="1" relative="1" as="geometry">
            <mxPoint as="offset" />
          </mxGeometry>
        </mxCell>
        <mxCell id="qUDko9j9zWVaxRLH53N1-39" value="" style="endArrow=classic;html=1;rounded=0;entryX=0.25;entryY=1;entryDx=0;entryDy=0;" edge="1" parent="1" target="qUDko9j9zWVaxRLH53N1-24">
          <mxGeometry width="50" height="50" relative="1" as="geometry">
            <mxPoint x="1400" y="870" as="sourcePoint" />
            <mxPoint x="1870" y="920" as="targetPoint" />
            <Array as="points">
              <mxPoint x="1400" y="920" />
              <mxPoint x="1863" y="920" />
            </Array>
          </mxGeometry>
        </mxCell>
        <mxCell id="qUDko9j9zWVaxRLH53N1-40" value="Staff Information" style="edgeLabel;html=1;align=center;verticalAlign=middle;resizable=0;points=[];" vertex="1" connectable="0" parent="qUDko9j9zWVaxRLH53N1-39">
          <mxGeometry x="-0.0842" y="-1" relative="1" as="geometry">
            <mxPoint as="offset" />
          </mxGeometry>
        </mxCell>
        <mxCell id="qUDko9j9zWVaxRLH53N1-41" value="" style="endArrow=classic;html=1;rounded=0;exitX=0.824;exitY=1;exitDx=0;exitDy=0;exitPerimeter=0;entryX=0.667;entryY=1.016;entryDx=0;entryDy=0;entryPerimeter=0;" edge="1" parent="1" source="qUDko9j9zWVaxRLH53N1-24" target="qUDko9j9zWVaxRLH53N1-1">
          <mxGeometry width="50" height="50" relative="1" as="geometry">
            <mxPoint x="1960" y="830" as="sourcePoint" />
            <mxPoint x="1300" y="1040" as="targetPoint" />
            <Array as="points">
              <mxPoint x="1960" y="1040" />
              <mxPoint x="1320" y="1040" />
            </Array>
          </mxGeometry>
        </mxCell>
        <mxCell id="qUDko9j9zWVaxRLH53N1-42" value="Course Grades and Credits" style="edgeLabel;html=1;align=center;verticalAlign=middle;resizable=0;points=[];" vertex="1" connectable="0" parent="qUDko9j9zWVaxRLH53N1-41">
          <mxGeometry x="0.0319" y="1" relative="1" as="geometry">
            <mxPoint as="offset" />
          </mxGeometry>
        </mxCell>
        <mxCell id="qUDko9j9zWVaxRLH53N1-43" value="" style="endArrow=classic;html=1;rounded=0;exitX=0.825;exitY=1.016;exitDx=0;exitDy=0;exitPerimeter=0;" edge="1" parent="1">
          <mxGeometry width="50" height="50" relative="1" as="geometry">
            <mxPoint x="1350" y="870" as="sourcePoint" />
            <mxPoint x="1919" y="780" as="targetPoint" />
            <Array as="points">
              <mxPoint x="1350" y="1000" />
              <mxPoint x="1920" y="1000" />
            </Array>
          </mxGeometry>
        </mxCell>
        <mxCell id="qUDko9j9zWVaxRLH53N1-44" value="GPA Calculation Result" style="edgeLabel;html=1;align=center;verticalAlign=middle;resizable=0;points=[];" vertex="1" connectable="0" parent="qUDko9j9zWVaxRLH53N1-43">
          <mxGeometry x="-0.05" y="2" relative="1" as="geometry">
            <mxPoint as="offset" />
          </mxGeometry>
        </mxCell>
        <mxCell id="qUDko9j9zWVaxRLH53N1-45" value="" style="endArrow=classic;html=1;rounded=0;entryX=0.124;entryY=-0.01;entryDx=0;entryDy=0;entryPerimeter=0;" edge="1" parent="1" target="qUDko9j9zWVaxRLH53N1-24">
          <mxGeometry width="50" height="50" relative="1" as="geometry">
            <mxPoint x="1400" y="620" as="sourcePoint" />
            <mxPoint x="1850" y="670" as="targetPoint" />
            <Array as="points">
              <mxPoint x="1841" y="620" />
            </Array>
          </mxGeometry>
        </mxCell>
        <mxCell id="qUDko9j9zWVaxRLH53N1-46" value="Nearby service list" style="edgeLabel;html=1;align=center;verticalAlign=middle;resizable=0;points=[];" vertex="1" connectable="0" parent="qUDko9j9zWVaxRLH53N1-45">
          <mxGeometry x="-0.168" y="-3" relative="1" as="geometry">
            <mxPoint as="offset" />
          </mxGeometry>
        </mxCell>
        <mxCell id="qUDko9j9zWVaxRLH53N1-47" value="" style="endArrow=classic;html=1;rounded=0;exitX=0.059;exitY=0;exitDx=0;exitDy=0;exitPerimeter=0;entryX=0.996;entryY=0.072;entryDx=0;entryDy=0;entryPerimeter=0;" edge="1" parent="1" source="qUDko9j9zWVaxRLH53N1-24" target="qUDko9j9zWVaxRLH53N1-1">
          <mxGeometry width="50" height="50" relative="1" as="geometry">
            <mxPoint x="1840" y="640" as="sourcePoint" />
            <mxPoint x="1450" y="590" as="targetPoint" />
            <Array as="points">
              <mxPoint x="1830" y="640" />
            </Array>
          </mxGeometry>
        </mxCell>
        <mxCell id="qUDko9j9zWVaxRLH53N1-48" value="Service category selection" style="edgeLabel;html=1;align=center;verticalAlign=middle;resizable=0;points=[];" vertex="1" connectable="0" parent="qUDko9j9zWVaxRLH53N1-47">
          <mxGeometry x="0.1381" y="2" relative="1" as="geometry">
            <mxPoint as="offset" />
          </mxGeometry>
        </mxCell>
        <mxCell id="qUDko9j9zWVaxRLH53N1-49" value="" style="endArrow=classic;html=1;rounded=0;entryX=0.5;entryY=0;entryDx=0;entryDy=0;" edge="1" parent="1" target="qUDko9j9zWVaxRLH53N1-1">
          <mxGeometry width="50" height="50" relative="1" as="geometry">
            <mxPoint x="1920" y="680" as="sourcePoint" />
            <mxPoint x="1280" y="480" as="targetPoint" />
            <Array as="points">
              <mxPoint x="1920" y="480" />
              <mxPoint x="1280" y="480" />
            </Array>
          </mxGeometry>
        </mxCell>
        <mxCell id="qUDko9j9zWVaxRLH53N1-50" value="Book Exchange Action" style="edgeLabel;html=1;align=center;verticalAlign=middle;resizable=0;points=[];" vertex="1" connectable="0" parent="qUDko9j9zWVaxRLH53N1-49">
          <mxGeometry x="-0.0265" y="2" relative="1" as="geometry">
            <mxPoint as="offset" />
          </mxGeometry>
        </mxCell>
        <mxCell id="qUDko9j9zWVaxRLH53N1-51" value="" style="endArrow=classic;html=1;rounded=0;" edge="1" parent="1">
          <mxGeometry width="50" height="50" relative="1" as="geometry">
            <mxPoint x="1860" y="676" as="sourcePoint" />
            <mxPoint x="1360" y="620" as="targetPoint" />
            <Array as="points">
              <mxPoint x="1860" y="560" />
              <mxPoint x="1360" y="560" />
            </Array>
          </mxGeometry>
        </mxCell>
        <mxCell id="qUDko9j9zWVaxRLH53N1-52" value="Graduation Requirements Request" style="edgeLabel;html=1;align=center;verticalAlign=middle;resizable=0;points=[];" vertex="1" connectable="0" parent="qUDko9j9zWVaxRLH53N1-51">
          <mxGeometry x="0.1272" y="-2" relative="1" as="geometry">
            <mxPoint as="offset" />
          </mxGeometry>
        </mxCell>
        <mxCell id="qUDko9j9zWVaxRLH53N1-53" value="" style="endArrow=classic;html=1;rounded=0;entryX=0.371;entryY=-0.04;entryDx=0;entryDy=0;entryPerimeter=0;" edge="1" parent="1" target="qUDko9j9zWVaxRLH53N1-24">
          <mxGeometry width="50" height="50" relative="1" as="geometry">
            <mxPoint x="1320" y="620" as="sourcePoint" />
            <mxPoint x="1920" y="530" as="targetPoint" />
            <Array as="points">
              <mxPoint x="1320" y="530" />
              <mxPoint x="1883" y="530" />
            </Array>
          </mxGeometry>
        </mxCell>
        <mxCell id="qUDko9j9zWVaxRLH53N1-54" value="Graduation information" style="edgeLabel;html=1;align=center;verticalAlign=middle;resizable=0;points=[];" vertex="1" connectable="0" parent="qUDko9j9zWVaxRLH53N1-53">
          <mxGeometry x="-0.1114" relative="1" as="geometry">
            <mxPoint as="offset" />
          </mxGeometry>
        </mxCell>
        <mxCell id="qUDko9j9zWVaxRLH53N1-55" value="" style="endArrow=classic;html=1;rounded=0;entryX=0.794;entryY=-0.03;entryDx=0;entryDy=0;entryPerimeter=0;" edge="1" parent="1" target="qUDko9j9zWVaxRLH53N1-24">
          <mxGeometry width="50" height="50" relative="1" as="geometry">
            <mxPoint x="1250" y="620" as="sourcePoint" />
            <mxPoint x="1980" y="440" as="targetPoint" />
            <Array as="points">
              <mxPoint x="1250" y="450" />
              <mxPoint x="1960" y="450" />
            </Array>
          </mxGeometry>
        </mxCell>
        <mxCell id="qUDko9j9zWVaxRLH53N1-56" value="Book Listings and Exchange Status" style="edgeLabel;html=1;align=center;verticalAlign=middle;resizable=0;points=[];" vertex="1" connectable="0" parent="qUDko9j9zWVaxRLH53N1-55">
          <mxGeometry x="-0.0515" y="1" relative="1" as="geometry">
            <mxPoint as="offset" />
          </mxGeometry>
        </mxCell>
      </root>
    </mxGraphModel>
  </diagram>
</mxfile>
